{
  "extensionsUsed": [
    "KHR_materials_transmission",
    "KHR_materials_clearcoat",
    "KHR_materials_ior",
    "KHR_materials_specular",
    "KHR_materials_emissive_strength",
    "KHR_texture_transform"
  ],
  "accessors": [
    {
      "bufferView": 0,
      "componentType": 5126,
      "count": 6,
      "type": "VEC3",
      "max": [
        0.5,
        0.5,
        0.5
      ],
      "min": [
        0.0,
        -0.5,
        0.5
      ]
    },
    {
      "bufferView": 1,
      "componentType": 5125,
      "count": 12,
      "type": "SCALAR",
      "max": [
        5.0
      ],
      "min": [
        0.0
      ]
    },
    {
      "bufferView": 2,
      "componentType": 5126,
      "count": 6,
      "type": "VEC3",
      "max": [
        0.0,
        0.0,
        1.0
      ],
      "min": [
        0.0,
        0.0,
        1.0
      ]
    },
    {
      "bufferView": 3,
      "componentType": 5126,
      "count": 6,
      "type": "VEC2",
      "max": [
        0.5586592,
        0.99853516
      ],
      "min": [
        0.28006202,
        0.43987596
      ]
    },
    {
      "bufferView": 4,
      "componentType": 5126,
      "count": 6,
      "type": "VEC2",
      "max": [
        50.0,
        50.0
      ],
      "min": [
        0.0,
        -50.0
      ]
    },
    {
      "bufferView": 6,
      "componentType": 5126,
      "count": 90,
      "type": "VEC3",
      "max": [
        0.5,
        0.5,
        0.5
      ],
      "min": [
        0.0,
        0.5,
        0.0
      ]
    },
    {
      "bufferView": 7,
      "componentType": 5125,
      "count": 261,
      "type": "SCALAR",
      "max": [
        89.0
      ],
      "min": [
        0.0
      ]
    },
    {
      "bufferView": 8,
      "componentType": 5126,
      "count": 90,
      "type": "VEC3",
      "max": [
        0.0,
        1.0,
        0.0
      ],
      "min": [
        0.0,
        1.0,
        0.0
      ]
    },
    {
      "bufferView": 9,
      "componentType": 5126,
      "count": 90,
      "type": "VEC2",
      "max": [
        0.99853516,
        0.780062
      ],
      "min": [
        0.56012404,
        0.5
      ]
    },
    {
      "bufferView": 10,
      "componentType": 5126,
      "count": 90,
      "type": "VEC2",
      "max": [
        50.0,
        0.0
      ],
      "min": [
        0.0,
        -50.0
      ]
    },
    {
      "bufferView": 11,
      "componentType": 5126,
      "count": 48,
      "type": "VEC3",
      "max": [
        0.5,
        0.5,
        0.5
      ],
      "min": [
        0.0,
        -0.5,
        0.0
      ]
    },
    {
      "bufferView": 12,
      "componentType": 5125,
      "count": 138,
      "type": "SCALAR",
      "max": [
        47.0
      ],
      "min": [
        0.0
      ]
    },
    {
      "bufferView": 13,
      "componentType": 5126,
      "count": 48,
      "type": "VEC3",
      "max": [
        1.8369701E-16,
        0.0,
        -2.4492937E-16
      ],
      "min": [
        -1.0,
        0.0,
        -1.0
      ]
    },
    {
      "bufferView": 14,
      "componentType": 5126,
      "count": 48,
      "type": "VEC2",
      "max": [
        0.5586592,
        0.43841112
      ],
      "min": [
        0.0,
        0.0
      ]
    },
    {
      "bufferView": 15,
      "componentType": 5126,
      "count": 48,
      "type": "VEC2",
      "max": [
        50.0,
        50.0
      ],
      "min": [
        -50.0,
        -50.0
      ]
    },
    {
      "bufferView": 16,
      "componentType": 5126,
      "count": 90,
      "type": "VEC3",
      "max": [
        0.5,
        -0.5,
        0.5
      ],
      "min": [
        0.0,
        -0.5,
        0.0
      ]
    },
    {
      "bufferView": 17,
      "componentType": 5125,
      "count": 261,
      "type": "SCALAR",
      "max": [
        89.0
      ],
      "min": [
        0.0
      ]
    },
    {
      "bufferView": 18,
      "componentType": 5126,
      "count": 90,
      "type": "VEC3",
      "max": [
        0.0,
        -1.0,
        0.0
      ],
      "min": [
        0.0,
        -1.0,
        0.0
      ]
    },
    {
      "bufferView": 19,
      "componentType": 5126,
      "count": 90,
      "type": "VEC2",
      "max": [
        0.99853516,
        0.28006202
      ],
      "min": [
        0.56012404,
        0.0
      ]
    },
    {
      "bufferView": 20,
      "componentType": 5126,
      "count": 90,
      "type": "VEC2",
      "max": [
        -0.0,
        0.0
      ],
      "min": [
        -50.0,
        -50.0
      ]
    },
    {
      "bufferView": 21,
      "componentType": 5126,
      "count": 6,
      "type": "VEC3",
      "max": [
        0.5,
        0.5,
        0.5
      ],
      "min": [
        0.5,
        -0.5,
        0.0
      ]
    },
    {
      "bufferView": 22,
      "componentType": 5125,
      "count": 12,
      "type": "SCALAR",
      "max": [
        5.0
      ],
      "min": [
        0.0
      ]
    },
    {
      "bufferView": 23,
      "componentType": 5126,
      "count": 6,
      "type": "VEC3",
      "max": [
        1.0,
        0.0,
        0.0
      ],
      "min": [
        1.0,
        0.0,
        0.0
      ]
    },
    {
      "bufferView": 24,
      "componentType": 5126,
      "count": 6,
      "type": "VEC2",
      "max": [
        0.27859718,
        0.99853516
      ],
      "min": [
        0.0,
        0.43987596
      ]
    },
    {
      "bufferView": 25,
      "componentType": 5126,
      "count": 6,
      "type": "VEC2",
      "max": [
        0.0,
        50.0
      ],
      "min": [
        -50.0,
        -50.0
      ]
    }
  ],
  "asset": {
    "version": "2.0"
  },
  "buffers": [
    {
      "uri": "data:application/octet-stream;base64,",
      "byteLength": 72
    },
    {
      "uri": "data:application/octet-stream;base64,",
      "byteLength": 48
    },
    {
      "uri": "data:application/octet-stream;base64,",
      "byteLength": 72
    },
    {
      "uri": "data:application/octet-stream;base64,",
      "byteLength": 48
    },
    {
      "uri": "data:application/octet-stream;base64,",
      "byteLength": 48
    },
    {
      "uri": "data:application/octet-stream;base64,",
      "byteLength": 175552
    },
    {
      "uri": "data:application/octet-stream;base64,",
      "byteLength": 1080
    },
    {
      "uri": "data:application/octet-stream;base64,",
      "byteLength": 1044
    },
    {
      "uri": "data:application/octet-stream;base64,",
      "byteLength": 1080
    },
    {
      "uri": "data:application/octet-stream;base64,",
      "byteLength": 720
    },
    {
      "uri": "data:application/octet-stream;base64,",
      "byteLength": 720
    },
    {
      "uri": "data:application/octet-stream;base64,",
      "byteLength": 576
    },
    {
      "uri": "data:application/octet-stream;base64,",
      "byteLength": 552
    },
    {
      "uri": "data:application/octet-stream;base64,",
      "byteLength": 576
    },
    {
      "uri": "data:application/octet-stream;base64,",
      "byteLength": 384
    },
    {
      "uri": "data:application/octet-stream;base64,",
      "byteLength": 384
    },
    {
      "uri": "data:application/octet-stream;base64,",
      "byteLength": 1080
    },
    {
      "uri": "data:application/octet-stream;base64,",
      "byteLength": 1044
    },
    {
      "uri": "data:application/octet-stream;base64,",
      "byteLength": 1080
    },
    {
      "uri": "data:application/octet-stream;base64,",
      "byteLength": 720
    },
    {
      "uri": "data:application/octet-stream;base64,",
      "byteLength": 720
    },
    {
      "uri": "data:application/octet-stream;base64,",
      "byteLength": 72
    },
    {
      "uri": "data:application/octet-stream;base64,",
      "byteLength": 48
    },
    {
      "uri": "data:application/octet-stream;base64,",
      "byteLength": 72
    },
    {
      "uri": "data:application/octet-stream;base64,",
      "byteLength": 48
    },
    {
      "uri": "data:application/octet-stream;base64,",
      "byteLength": 48
    }
  ],
  "bufferViews": [
    {
      "buffer": 0,
      "byteLength": 72,
      "target": 34962
    },
    {
      "buffer": 1,
      "byteLength": 48,
      "target": 34963
    },
    {
      "buffer": 2,
      "byteLength": 72,
      "target": 34962
    },
    {
      "buffer": 3,
      "byteLength": 48,
      "target": 34962
    },
    {
      "buffer": 4,
      "byteLength": 48,
      "target": 34962
    },
    {
      "buffer": 5,
      "byteLength": 175552
    },
    {
      "buffer": 6,
      "byteLength": 1080,
      "target": 34962
    },
    {
      "buffer": 7,
      "byteLength": 1044,
      "target": 34963
    },
    {
      "buffer": 8,
      "byteLength": 1080,
      "target": 34962
    },
    {
      "buffer": 9,
      "byteLength": 720,
      "target": 34962
    },
    {
      "buffer": 10,
      "byteLength": 720,
      "target": 34962
    },
    {
      "buffer": 11,
      "byteLength": 576,
      "target": 34962
    },
    {
      "buffer": 12,
      "byteLength": 552,
      "target": 34963
    },
    {
      "buffer": 13,
      "byteLength": 576,
      "target": 34962
    },
    {
      "buffer": 14,
      "byteLength": 384,
      "target": 34962
    },
    {
      "buffer": 15,
      "byteLength": 384,
      "target": 34962
    },
    {
      "buffer": 16,
      "byteLength": 1080,
      "target": 34962
    },
    {
      "buffer": 17,
      "byteLength": 1044,
      "target": 34963
    },
    {
      "buffer": 18,
      "byteLength": 1080,
      "target": 34962
    },
    {
      "buffer": 19,
      "byteLength": 720,
      "target": 34962
    },
    {
      "buffer": 20,
      "byteLength": 720,
      "target": 34962
    },
    {
      "buffer": 21,
      "byteLength": 72,
      "target": 34962
    },
    {
      "buffer": 22,
      "byteLength": 48,
      "target": 34963
    },
    {
      "buffer": 23,
      "byteLength": 72,
      "target": 34962
    },
    {
      "buffer": 24,
      "byteLength": 48,
      "target": 34962
    },
    {
      "buffer": 25,
      "byteLength": 48,
      "target": 34962
    }
  ],
  "images": [
    {
      "mimeType": "image/png",
      "bufferView": 5
    }
  ],
  "materials": [
    {
      "name": "texture (3)",
      "extensions": {
        "KHR_materials_transmission": {},
        "KHR_materials_clearcoat": {},
        "KHR_materials_ior": {
          "ior": 1.52
        },
        "KHR_materials_specular": {
          "specularFactor": 0.5,
          "specularColorFactor": [
            1.0,
            1.0,
            1.0
          ]
        }
      },
      "pbrMetallicRoughness": {
        "baseColorTexture": {
          "index": 0,
          "texCoord": 1,
          "extensions": {
            "KHR_texture_transform": {
              "offset": [
                0.0,
                1.0
              ],
              "scale": [
                0.01,
                -0.01
              ]
            }
          }
        },
        "metallicFactor": 0.0,
        "roughnessFactor": 0.2
      }
    }
  ],
  "meshes": [
    {
      "primitives": [
        {
          "attributes": {
            "POSITION": 0,
            "NORMAL": 2,
            "TEXCOORD_0": 3,
            "TEXCOORD_1": 4
          },
          "indices": 1,
          "material": 0
        },
        {
          "attributes": {
            "POSITION": 5,
            "NORMAL": 7,
            "TEXCOORD_0": 8,
            "TEXCOORD_1": 9
          },
          "indices": 6,
          "material": 0
        },
        {
          "attributes": {
            "POSITION": 10,
            "NORMAL": 12,
            "TEXCOORD_0": 13,
            "TEXCOORD_1": 14
          },
          "indices": 11,
          "material": 0
        },
        {
          "attributes": {
            "POSITION": 15,
            "NORMAL": 17,
            "TEXCOORD_0": 18,
            "TEXCOORD_1": 19
          },
          "indices": 16,
          "material": 0
        },
        {
          "attributes": {
            "POSITION": 20,
            "NORMAL": 22,
            "TEXCOORD_0": 23,
            "TEXCOORD_1": 24
          },
          "indices": 21,
          "material": 0
        }
      ]
    }
  ],
  "nodes": [
    {
      "mesh": 0
    }
  ],
  "samplers": [
    {
      "magFilter": 9729,
      "minFilter": 9729
    }
  ],
  "scene": 0,
  "scenes": [
    {
      "nodes": [
        0
      ],
      "extensions": {}
    }
  ],
  "textures": [
    {
      "sampler": 0,
      "source": 0
    }
  ],
  "extensions": {}
}