{
  "extensionsUsed": [
    "KHR_materials_transmission",
    "KHR_materials_clearcoat",
    "KHR_materials_ior",
    "KHR_materials_specular",
    "KHR_materials_emissive_strength",
    "KHR_texture_transform"
  ],
  "accessors": [
    {
      "bufferView": 0,
      "componentType": 5126,
      "count": 4,
      "type": "VEC3",
      "max": [
        -0.5,
        0.5,
        0.5
      ],
      "min": [
        -0.5,
        -0.5,
        -0.5
      ]
    },
    {
      "bufferView": 1,
      "componentType": 5125,
      "count": 6,
      "type": "SCALAR",
      "max": [
        3.0
      ],
      "min": [
        0.0
      ]
    },
    {
      "bufferView": 2,
      "componentType": 5126,
      "count": 4,
      "type": "VEC3",
      "max": [
        -1.0,
        0.0,
        0.0
      ],
      "min": [
        -1.0,
        0.0,
        0.0
      ]
    },
    {
      "bufferView": 3,
      "componentType": 5126,
      "count": 4,
      "type": "VEC2",
      "max": [
        0.3318685,
        0.3318685
      ],
      "min": [
        0.0,
        0.0
      ]
    },
    {
      "bufferView": 4,
      "componentType": 5126,
      "count": 4,
      "type": "VEC2",
      "max": [
        50.0,
        50.0
      ],
      "min": [
        -50.0,
        -50.0
      ]
    },
    {
      "bufferView": 6,
      "componentType": 5126,
      "count": 36,
      "type": "VEC3",
      "max": [
        0.5,
        0.5,
        0.5
      ],
      "min": [
        -0.5,
        -0.5,
        0.5
      ]
    },
    {
      "bufferView": 7,
      "componentType": 5125,
      "count": 102,
      "type": "SCALAR",
      "max": [
        35.0
      ],
      "min": [
        0.0
      ]
    },
    {
      "bufferView": 8,
      "componentType": 5126,
      "count": 36,
      "type": "VEC3",
      "max": [
        4.1633363E-17,
        0.0,
        1.0
      ],
      "min": [
        -5.551115E-17,
        0.0,
        1.0
      ]
    },
    {
      "bufferView": 9,
      "componentType": 5126,
      "count": 36,
      "type": "VEC2",
      "max": [
        0.99853516,
        0.66520184
      ],
      "min": [
        0.6666667,
        0.33333334
      ]
    },
    {
      "bufferView": 10,
      "componentType": 5126,
      "count": 36,
      "type": "VEC2",
      "max": [
        50.0,
        50.0
      ],
      "min": [
        -50.0,
        -50.0
      ]
    },
    {
      "bufferView": 11,
      "componentType": 5126,
      "count": 5,
      "type": "VEC3",
      "max": [
        0.5,
        0.5,
        0.5
      ],
      "min": [
        0.5,
        0.0,
        -0.5
      ]
    },
    {
      "bufferView": 12,
      "componentType": 5125,
      "count": 9,
      "type": "SCALAR",
      "max": [
        4.0
      ],
      "min": [
        0.0
      ]
    },
    {
      "bufferView": 13,
      "componentType": 5126,
      "count": 5,
      "type": "VEC3",
      "max": [
        1.0,
        0.0,
        0.0
      ],
      "min": [
        1.0,
        0.0,
        0.0
      ]
    },
    {
      "bufferView": 14,
      "componentType": 5126,
      "count": 5,
      "type": "VEC2",
      "max": [
        0.3318685,
        0.66520184
      ],
      "min": [
        0.0,
        0.5
      ]
    },
    {
      "bufferView": 15,
      "componentType": 5126,
      "count": 5,
      "type": "VEC2",
      "max": [
        50.0,
        50.0
      ],
      "min": [
        -50.0,
        0.0
      ]
    },
    {
      "bufferView": 16,
      "componentType": 5126,
      "count": 36,
      "type": "VEC3",
      "max": [
        0.5,
        0.5,
        -0.5
      ],
      "min": [
        -0.5,
        -0.5,
        -0.5
      ]
    },
    {
      "bufferView": 17,
      "componentType": 5125,
      "count": 102,
      "type": "SCALAR",
      "max": [
        35.0
      ],
      "min": [
        0.0
      ]
    },
    {
      "bufferView": 18,
      "componentType": 5126,
      "count": 36,
      "type": "VEC3",
      "max": [
        5.551115E-17,
        0.0,
        -1.0
      ],
      "min": [
        -4.1633363E-17,
        0.0,
        -1.0
      ]
    },
    {
      "bufferView": 19,
      "componentType": 5126,
      "count": 36,
      "type": "VEC2",
      "max": [
        0.99853516,
        0.3318685
      ],
      "min": [
        0.6666667,
        0.0
      ]
    },
    {
      "bufferView": 20,
      "componentType": 5126,
      "count": 36,
      "type": "VEC2",
      "max": [
        50.0,
        50.0
      ],
      "min": [
        -50.0,
        -50.0
      ]
    },
    {
      "bufferView": 21,
      "componentType": 5126,
      "count": 4,
      "type": "VEC3",
      "max": [
        0.0,
        -0.5,
        0.5
      ],
      "min": [
        -0.5,
        -0.5,
        -0.5
      ]
    },
    {
      "bufferView": 22,
      "componentType": 5125,
      "count": 6,
      "type": "SCALAR",
      "max": [
        3.0
      ],
      "min": [
        0.0
      ]
    },
    {
      "bufferView": 23,
      "componentType": 5126,
      "count": 4,
      "type": "VEC3",
      "max": [
        0.0,
        -1.0,
        0.0
      ],
      "min": [
        0.0,
        -1.0,
        0.0
      ]
    },
    {
      "bufferView": 24,
      "componentType": 5126,
      "count": 4,
      "type": "VEC2",
      "max": [
        0.3318685,
        0.49853516
      ],
      "min": [
        0.0,
        0.33333334
      ]
    },
    {
      "bufferView": 25,
      "componentType": 5126,
      "count": 4,
      "type": "VEC2",
      "max": [
        50.0,
        50.0
      ],
      "min": [
        -0.0,
        -50.0
      ]
    },
    {
      "bufferView": 26,
      "componentType": 5126,
      "count": 4,
      "type": "VEC3",
      "max": [
        0.5,
        0.5,
        0.5
      ],
      "min": [
        -0.5,
        0.5,
        -0.5
      ]
    },
    {
      "bufferView": 27,
      "componentType": 5125,
      "count": 6,
      "type": "SCALAR",
      "max": [
        3.0
      ],
      "min": [
        0.0
      ]
    },
    {
      "bufferView": 28,
      "componentType": 5126,
      "count": 4,
      "type": "VEC3",
      "max": [
        0.0,
        1.0,
        0.0
      ],
      "min": [
        0.0,
        1.0,
        0.0
      ]
    },
    {
      "bufferView": 29,
      "componentType": 5126,
      "count": 4,
      "type": "VEC2",
      "max": [
        0.66520184,
        0.62612855
      ],
      "min": [
        0.33333334,
        0.29279524
      ]
    },
    {
      "bufferView": 30,
      "componentType": 5126,
      "count": 4,
      "type": "VEC2",
      "max": [
        50.0,
        50.0
      ],
      "min": [
        -50.0,
        -50.0
      ]
    },
    {
      "bufferView": 31,
      "componentType": 5126,
      "count": 67,
      "type": "VEC3",
      "max": [
        0.5,
        0.0,
        0.5
      ],
      "min": [
        0.0,
        -0.5,
        -0.5
      ]
    },
    {
      "bufferView": 32,
      "componentType": 5125,
      "count": 195,
      "type": "SCALAR",
      "max": [
        66.0
      ],
      "min": [
        0.0
      ]
    },
    {
      "bufferView": 33,
      "componentType": 5126,
      "count": 67,
      "type": "VEC3",
      "max": [
        1.0,
        0.0,
        0.0
      ],
      "min": [
        -2.323737E-16,
        -1.0,
        -0.0
      ]
    },
    {
      "bufferView": 34,
      "componentType": 5126,
      "count": 67,
      "type": "VEC2",
      "max": [
        0.66520184,
        0.26104808
      ],
      "min": [
        0.33333334,
        0.0
      ]
    },
    {
      "bufferView": 35,
      "componentType": 5126,
      "count": 67,
      "type": "VEC2",
      "max": [
        50.0,
        50.0
      ],
      "min": [
        -50.0,
        -50.0
      ]
    }
  ],
  "asset": {
    "version": "2.0"
  },
  "buffers": [
    {
      "uri": "data:application/octet-stream;base64,",
      "byteLength": 48
    },
    {
      "uri": "data:application/octet-stream;base64,",
      "byteLength": 24
    },
    {
      "uri": "data:application/octet-stream;base64,",
      "byteLength": 48
    },
    {
      "uri": "data:application/octet-stream;base64,",
      "byteLength": 32
    },
    {
      "uri": "data:application/octet-stream;base64,",
      "byteLength": 32
    },
    {
      "uri": "data:application/octet-stream;base64,",
      "byteLength": 175552
    },
    {
      "uri": "data:application/octet-stream;base64,",
      "byteLength": 432
    },
    {
      "uri": "data:application/octet-stream;base64,",
      "byteLength": 408
    },
    {
      "uri": "data:application/octet-stream;base64,",
      "byteLength": 432
    },
    {
      "uri": "data:application/octet-stream;base64,",
      "byteLength": 288
    },
    {
      "uri": "data:application/octet-stream;base64,",
      "byteLength": 288
    },
    {
      "uri": "data:application/octet-stream;base64,",
      "byteLength": 60
    },
    {
      "uri": "data:application/octet-stream;base64,",
      "byteLength": 36
    },
    {
      "uri": "data:application/octet-stream;base64,",
      "byteLength": 60
    },
    {
      "uri": "data:application/octet-stream;base64,",
      "byteLength": 40
    },
    {
      "uri": "data:application/octet-stream;base64,",
      "byteLength": 40
    },
    {
      "uri": "data:application/octet-stream;base64,",
      "byteLength": 432
    },
    {
      "uri": "data:application/octet-stream;base64,",
      "byteLength": 408
    },
    {
      "uri": "data:application/octet-stream;base64,",
      "byteLength": 432
    },
    {
      "uri": "data:application/octet-stream;base64,",
      "byteLength": 288
    },
    {
      "uri": "data:application/octet-stream;base64,",
      "byteLength": 288
    },
    {
      "uri": "data:application/octet-stream;base64,",
      "byteLength": 48
    },
    {
      "uri": "data:application/octet-stream;base64,",
      "byteLength": 24
    },
    {
      "uri": "data:application/octet-stream;base64,",
      "byteLength": 48
    },
    {
      "uri": "data:application/octet-stream;base64,",
      "byteLength": 32
    },
    {
      "uri": "data:application/octet-stream;base64,",
      "byteLength": 32
    },
    {
      "uri": "data:application/octet-stream;base64,",
      "byteLength": 48
    },
    {
      "uri": "data:application/octet-stream;base64,",
      "byteLength": 24
    },
    {
      "uri": "data:application/octet-stream;base64,",
      "byteLength": 48
    },
    {
      "uri": "data:application/octet-stream;base64,",
      "byteLength": 32
    },
    {
      "uri": "data:application/octet-stream;base64,",
      "byteLength": 32
    },
    {
      "uri": "data:application/octet-stream;base64,",
      "byteLength": 804
    },
    {
      "uri": "data:application/octet-stream;base64,",
      "byteLength": 780
    },
    {
      "uri": "data:application/octet-stream;base64,",
      "byteLength": 804
    },
    {
      "uri": "data:application/octet-stream;base64,",
      "byteLength": 536
    },
    {
      "uri": "data:application/octet-stream;base64,",
      "byteLength": 536
    }
  ],
  "bufferViews": [
    {
      "buffer": 0,
      "byteLength": 48,
      "target": 34962
    },
    {
      "buffer": 1,
      "byteLength": 24,
      "target": 34963
    },
    {
      "buffer": 2,
      "byteLength": 48,
      "target": 34962
    },
    {
      "buffer": 3,
      "byteLength": 32,
      "target": 34962
    },
    {
      "buffer": 4,
      "byteLength": 32,
      "target": 34962
    },
    {
      "buffer": 5,
      "byteLength": 175552
    },
    {
      "buffer": 6,
      "byteLength": 432,
      "target": 34962
    },
    {
      "buffer": 7,
      "byteLength": 408,
      "target": 34963
    },
    {
      "buffer": 8,
      "byteLength": 432,
      "target": 34962
    },
    {
      "buffer": 9,
      "byteLength": 288,
      "target": 34962
    },
    {
      "buffer": 10,
      "byteLength": 288,
      "target": 34962
    },
    {
      "buffer": 11,
      "byteLength": 60,
      "target": 34962
    },
    {
      "buffer": 12,
      "byteLength": 36,
      "target": 34963
    },
    {
      "buffer": 13,
      "byteLength": 60,
      "target": 34962
    },
    {
      "buffer": 14,
      "byteLength": 40,
      "target": 34962
    },
    {
      "buffer": 15,
      "byteLength": 40,
      "target": 34962
    },
    {
      "buffer": 16,
      "byteLength": 432,
      "target": 34962
    },
    {
      "buffer": 17,
      "byteLength": 408,
      "target": 34963
    },
    {
      "buffer": 18,
      "byteLength": 432,
      "target": 34962
    },
    {
      "buffer": 19,
      "byteLength": 288,
      "target": 34962
    },
    {
      "buffer": 20,
      "byteLength": 288,
      "target": 34962
    },
    {
      "buffer": 21,
      "byteLength": 48,
      "target": 34962
    },
    {
      "buffer": 22,
      "byteLength": 24,
      "target": 34963
    },
    {
      "buffer": 23,
      "byteLength": 48,
      "target": 34962
    },
    {
      "buffer": 24,
      "byteLength": 32,
      "target": 34962
    },
    {
      "buffer": 25,
      "byteLength": 32,
      "target": 34962
    },
    {
      "buffer": 26,
      "byteLength": 48,
      "target": 34962
    },
    {
      "buffer": 27,
      "byteLength": 24,
      "target": 34963
    },
    {
      "buffer": 28,
      "byteLength": 48,
      "target": 34962
    },
    {
      "buffer": 29,
      "byteLength": 32,
      "target": 34962
    },
    {
      "buffer": 30,
      "byteLength": 32,
      "target": 34962
    },
    {
      "buffer": 31,
      "byteLength": 804,
      "target": 34962
    },
    {
      "buffer": 32,
      "byteLength": 780,
      "target": 34963
    },
    {
      "buffer": 33,
      "byteLength": 804,
      "target": 34962
    },
    {
      "buffer": 34,
      "byteLength": 536,
      "target": 34962
    },
    {
      "buffer": 35,
      "byteLength": 536,
      "target": 34962
    }
  ],
  "images": [
    {
      "mimeType": "image/png",
      "bufferView": 5
    }
  ],
  "materials": [
    {
      "name": "texture (1)",
      "extensions": {
        "KHR_materials_transmission": {},
        "KHR_materials_clearcoat": {},
        "KHR_materials_ior": {
          "ior": 1.52
        },
        "KHR_materials_specular": {
          "specularFactor": 0.5,
          "specularColorFactor": [
            1.0,
            1.0,
            1.0
          ]
        }
      },
      "pbrMetallicRoughness": {
        "baseColorTexture": {
          "index": 0,
          "texCoord": 1,
          "extensions": {
            "KHR_texture_transform": {
              "offset": [
                0.0,
                1.0
              ],
              "scale": [
                0.01,
                -0.01
              ]
            }
          }
        },
        "metallicFactor": 0.0,
        "roughnessFactor": 0.2
      }
    }
  ],
  "meshes": [
    {
      "primitives": [
        {
          "attributes": {
            "POSITION": 0,
            "NORMAL": 2,
            "TEXCOORD_0": 3,
            "TEXCOORD_1": 4
          },
          "indices": 1,
          "material": 0
        },
        {
          "attributes": {
            "POSITION": 5,
            "NORMAL": 7,
            "TEXCOORD_0": 8,
            "TEXCOORD_1": 9
          },
          "indices": 6,
          "material": 0
        },
        {
          "attributes": {
            "POSITION": 10,
            "NORMAL": 12,
            "TEXCOORD_0": 13,
            "TEXCOORD_1": 14
          },
          "indices": 11,
          "material": 0
        },
        {
          "attributes": {
            "POSITION": 15,
            "NORMAL": 17,
            "TEXCOORD_0": 18,
            "TEXCOORD_1": 19
          },
          "indices": 16,
          "material": 0
        },
        {
          "attributes": {
            "POSITION": 20,
            "NORMAL": 22,
            "TEXCOORD_0": 23,
            "TEXCOORD_1": 24
          },
          "indices": 21,
          "material": 0
        },
        {
          "attributes": {
            "POSITION": 25,
            "NORMAL": 27,
            "TEXCOORD_0": 28,
            "TEXCOORD_1": 29
          },
          "indices": 26,
          "material": 0
        },
        {
          "attributes": {
            "POSITION": 30,
            "NORMAL": 32,
            "TEXCOORD_0": 33,
            "TEXCOORD_1": 34
          },
          "indices": 31,
          "material": 0
        }
      ]
    }
  ],
  "nodes": [
    {
      "mesh": 0
    }
  ],
  "samplers": [
    {
      "magFilter": 9729,
      "minFilter": 9729
    }
  ],
  "scene": 0,
  "scenes": [
    {
      "nodes": [
        0
      ],
      "extensions": {}
    }
  ],
  "textures": [
    {
      "sampler": 0,
      "source": 0
    }
  ],
  "extensions": {}
}