{
  "extensionsUsed": [
    "KHR_materials_transmission",
    "KHR_materials_clearcoat",
    "KHR_materials_ior",
    "KHR_materials_specular",
    "KHR_materials_emissive_strength",
    "KHR_texture_transform"
  ],
  "accessors": [
    {
      "bufferView": 0,
      "componentType": 5126,
      "count": 6,
      "type": "VEC3",
      "max": [
        0.5,
        0.5,
        0.5
      ],
      "min": [
        0.0,
        -0.5,
        0.5
      ]
    },
    {
      "bufferView": 1,
      "componentType": 5125,
      "count": 12,
      "type": "SCALAR",
      "max": [
        5.0
      ],
      "min": [
        0.0
      ]
    },
    {
      "bufferView": 2,
      "componentType": 5126,
      "count": 6,
      "type": "VEC3",
      "max": [
        0.0,
        0.0,
        1.0
      ],
      "min": [
        0.0,
        0.0,
        1.0
      ]
    },
    {
      "bufferView": 3,
      "componentType": 5126,
      "count": 6,
      "type": "VEC2",
      "max": [
        0.99853516,
        -0.0
      ],
      "min": [
        0.719938,
        -0.56012404
      ]
    },
    {
      "bufferView": 4,
      "componentType": 5126,
      "count": 90,
      "type": "VEC3",
      "max": [
        0.5,
        0.5,
        0.5
      ],
      "min": [
        0.0,
        0.5,
        0.0
      ]
    },
    {
      "bufferView": 5,
      "componentType": 5125,
      "count": 261,
      "type": "SCALAR",
      "max": [
        89.0
      ],
      "min": [
        0.0
      ]
    },
    {
      "bufferView": 6,
      "componentType": 5126,
      "count": 90,
      "type": "VEC3",
      "max": [
        0.0,
        1.0,
        0.0
      ],
      "min": [
        0.0,
        1.0,
        0.0
      ]
    },
    {
      "bufferView": 7,
      "componentType": 5126,
      "count": 90,
      "type": "VEC2",
      "max": [
        0.43841112,
        -0.719938
      ],
      "min": [
        0.0,
        -0.99853516
      ]
    },
    {
      "bufferView": 8,
      "componentType": 5126,
      "count": 48,
      "type": "VEC3",
      "max": [
        0.5,
        0.5,
        0.5
      ],
      "min": [
        0.0,
        -0.5,
        0.0
      ]
    },
    {
      "bufferView": 9,
      "componentType": 5125,
      "count": 138,
      "type": "SCALAR",
      "max": [
        47.0
      ],
      "min": [
        0.0
      ]
    },
    {
      "bufferView": 10,
      "componentType": 5126,
      "count": 48,
      "type": "VEC3",
      "max": [
        1.8369701E-16,
        0.0,
        -2.4492937E-16
      ],
      "min": [
        -1.0,
        0.0,
        -1.0
      ]
    },
    {
      "bufferView": 11,
      "componentType": 5126,
      "count": 48,
      "type": "VEC2",
      "max": [
        0.56012404,
        -0.0
      ],
      "min": [
        0.0,
        -0.43841112
      ]
    },
    {
      "bufferView": 12,
      "componentType": 5126,
      "count": 90,
      "type": "VEC3",
      "max": [
        0.5,
        -0.5,
        0.5
      ],
      "min": [
        0.0,
        -0.5,
        0.0
      ]
    },
    {
      "bufferView": 13,
      "componentType": 5125,
      "count": 261,
      "type": "SCALAR",
      "max": [
        89.0
      ],
      "min": [
        0.0
      ]
    },
    {
      "bufferView": 14,
      "componentType": 5126,
      "count": 90,
      "type": "VEC3",
      "max": [
        0.0,
        -1.0,
        0.0
      ],
      "min": [
        0.0,
        -1.0,
        0.0
      ]
    },
    {
      "bufferView": 15,
      "componentType": 5126,
      "count": 90,
      "type": "VEC2",
      "max": [
        0.43841112,
        -0.43987596
      ],
      "min": [
        0.0,
        -0.71847314
      ]
    },
    {
      "bufferView": 16,
      "componentType": 5126,
      "count": 6,
      "type": "VEC3",
      "max": [
        0.5,
        0.5,
        0.5
      ],
      "min": [
        0.5,
        -0.5,
        0.0
      ]
    },
    {
      "bufferView": 17,
      "componentType": 5125,
      "count": 12,
      "type": "SCALAR",
      "max": [
        5.0
      ],
      "min": [
        0.0
      ]
    },
    {
      "bufferView": 18,
      "componentType": 5126,
      "count": 6,
      "type": "VEC3",
      "max": [
        1.0,
        0.0,
        0.0
      ],
      "min": [
        1.0,
        0.0,
        0.0
      ]
    },
    {
      "bufferView": 19,
      "componentType": 5126,
      "count": 6,
      "type": "VEC2",
      "max": [
        0.71847314,
        -0.43987596
      ],
      "min": [
        0.43987596,
        -0.99853516
      ]
    }
  ],
  "asset": {
    "version": "2.0"
  },
  "buffers": [
    {
      "uri": "data:application/octet-stream;base64,",
      "byteLength": 72
    },
    {
      "uri": "data:application/octet-stream;base64,",
      "byteLength": 48
    },
    {
      "uri": "data:application/octet-stream;base64,",
      "byteLength": 72
    },
    {
      "uri": "data:application/octet-stream;base64,",
      "byteLength": 48
    },
    {
      "uri": "data:application/octet-stream;base64,",
      "byteLength": 1080
    },
    {
      "uri": "data:application/octet-stream;base64,",
      "byteLength": 1044
    },
    {
      "uri": "data:application/octet-stream;base64,",
      "byteLength": 1080
    },
    {
      "uri": "data:application/octet-stream;base64,",
      "byteLength": 720
    },
    {
      "uri": "data:application/octet-stream;base64,",
      "byteLength": 576
    },
    {
      "uri": "data:application/octet-stream;base64,",
      "byteLength": 552
    },
    {
      "uri": "data:application/octet-stream;base64,",
      "byteLength": 576
    },
    {
      "uri": "data:application/octet-stream;base64,",
      "byteLength": 384
    },
    {
      "uri": "data:application/octet-stream;base64,",
      "byteLength": 1080
    },
    {
      "uri": "data:application/octet-stream;base64,",
      "byteLength": 1044
    },
    {
      "uri": "data:application/octet-stream;base64,",
      "byteLength": 1080
    },
    {
      "uri": "data:application/octet-stream;base64,",
      "byteLength": 720
    },
    {
      "uri": "data:application/octet-stream;base64,",
      "byteLength": 72
    },
    {
      "uri": "data:application/octet-stream;base64,",
      "byteLength": 48
    },
    {
      "uri": "data:application/octet-stream;base64,",
      "byteLength": 72
    },
    {
      "uri": "data:application/octet-stream;base64,",
      "byteLength": 48
    }
  ],
  "bufferViews": [
    {
      "buffer": 0,
      "byteLength": 72,
      "target": 34962
    },
    {
      "buffer": 1,
      "byteLength": 48,
      "target": 34963
    },
    {
      "buffer": 2,
      "byteLength": 72,
      "target": 34962
    },
    {
      "buffer": 3,
      "byteLength": 48,
      "target": 34962
    },
    {
      "buffer": 4,
      "byteLength": 1080,
      "target": 34962
    },
    {
      "buffer": 5,
      "byteLength": 1044,
      "target": 34963
    },
    {
      "buffer": 6,
      "byteLength": 1080,
      "target": 34962
    },
    {
      "buffer": 7,
      "byteLength": 720,
      "target": 34962
    },
    {
      "buffer": 8,
      "byteLength": 576,
      "target": 34962
    },
    {
      "buffer": 9,
      "byteLength": 552,
      "target": 34963
    },
    {
      "buffer": 10,
      "byteLength": 576,
      "target": 34962
    },
    {
      "buffer": 11,
      "byteLength": 384,
      "target": 34962
    },
    {
      "buffer": 12,
      "byteLength": 1080,
      "target": 34962
    },
    {
      "buffer": 13,
      "byteLength": 1044,
      "target": 34963
    },
    {
      "buffer": 14,
      "byteLength": 1080,
      "target": 34962
    },
    {
      "buffer": 15,
      "byteLength": 720,
      "target": 34962
    },
    {
      "buffer": 16,
      "byteLength": 72,
      "target": 34962
    },
    {
      "buffer": 17,
      "byteLength": 48,
      "target": 34963
    },
    {
      "buffer": 18,
      "byteLength": 72,
      "target": 34962
    },
    {
      "buffer": 19,
      "byteLength": 48,
      "target": 34962
    }
  ],
  "meshes": [
    {
      "primitives": [
        {
          "attributes": {
            "POSITION": 0,
            "NORMAL": 2,
            "TEXCOORD_0": 3
          },
          "indices": 1
        },
        {
          "attributes": {
            "POSITION": 4,
            "NORMAL": 6,
            "TEXCOORD_0": 7
          },
          "indices": 5
        },
        {
          "attributes": {
            "POSITION": 8,
            "NORMAL": 10,
            "TEXCOORD_0": 11
          },
          "indices": 9
        },
        {
          "attributes": {
            "POSITION": 12,
            "NORMAL": 14,
            "TEXCOORD_0": 15
          },
          "indices": 13
        },
        {
          "attributes": {
            "POSITION": 16,
            "NORMAL": 18,
            "TEXCOORD_0": 19
          },
          "indices": 17
        }
      ]
    }
  ],
  "nodes": [
    {
      "mesh": 0
    }
  ],
  "samplers": [
    {
      "magFilter": 9729,
      "minFilter": 9729
    }
  ],
  "scene": 0,
  "scenes": [
    {
      "nodes": [
        0
      ],
      "extensions": {}
    }
  ],
  "extensions": {}
}