{
  "extensionsUsed": [
    "KHR_materials_transmission",
    "KHR_materials_clearcoat",
    "KHR_materials_ior",
    "KHR_materials_specular",
    "KHR_materials_emissive_strength",
    "KHR_texture_transform"
  ],
  "accessors": [
    {
      "bufferView": 0,
      "componentType": 5126,
      "count": 4,
      "type": "VEC3",
      "max": [
        -0.5,
        0.5,
        0.5
      ],
      "min": [
        -0.5,
        -0.5,
        -0.5
      ]
    },
    {
      "bufferView": 1,
      "componentType": 5125,
      "count": 6,
      "type": "SCALAR",
      "max": [
        3.0
      ],
      "min": [
        0.0
      ]
    },
    {
      "bufferView": 2,
      "componentType": 5126,
      "count": 4,
      "type": "VEC3",
      "max": [
        -1.0,
        0.0,
        0.0
      ],
      "min": [
        -1.0,
        0.0,
        0.0
      ]
    },
    {
      "bufferView": 3,
      "componentType": 5126,
      "count": 4,
      "type": "VEC2",
      "max": [
        0.33333334,
        0.66520184
      ],
      "min": [
        0.0,
        0.33333334
      ]
    },
    {
      "bufferView": 4,
      "componentType": 5126,
      "count": 35,
      "type": "VEC3",
      "max": [
        0.5,
        0.5,
        0.5
      ],
      "min": [
        -0.5,
        -0.5,
        0.5
      ]
    },
    {
      "bufferView": 5,
      "componentType": 5125,
      "count": 99,
      "type": "SCALAR",
      "max": [
        34.0
      ],
      "min": [
        0.0
      ]
    },
    {
      "bufferView": 6,
      "componentType": 5126,
      "count": 35,
      "type": "VEC3",
      "max": [
        1.110223E-16,
        0.0,
        1.0
      ],
      "min": [
        -2.220446E-16,
        0.0,
        1.0
      ]
    },
    {
      "bufferView": 7,
      "componentType": 5126,
      "count": 35,
      "type": "VEC2",
      "max": [
        0.66520184,
        0.99853516
      ],
      "min": [
        0.33333334,
        0.6666667
      ]
    },
    {
      "bufferView": 8,
      "componentType": 5126,
      "count": 47,
      "type": "VEC3",
      "max": [
        0.5,
        0.5,
        0.5
      ],
      "min": [
        0.5,
        -0.5,
        -0.5
      ]
    },
    {
      "bufferView": 9,
      "componentType": 5125,
      "count": 135,
      "type": "SCALAR",
      "max": [
        46.0
      ],
      "min": [
        0.0
      ]
    },
    {
      "bufferView": 10,
      "componentType": 5126,
      "count": 47,
      "type": "VEC3",
      "max": [
        1.0,
        0.0,
        4.440892E-16
      ],
      "min": [
        1.0,
        0.0,
        -4.440892E-16
      ]
    },
    {
      "bufferView": 11,
      "componentType": 5126,
      "count": 47,
      "type": "VEC2",
      "max": [
        0.3318685,
        0.99853516
      ],
      "min": [
        0.0,
        0.6666667
      ]
    },
    {
      "bufferView": 12,
      "componentType": 5126,
      "count": 4,
      "type": "VEC3",
      "max": [
        0.5,
        0.5,
        -0.5
      ],
      "min": [
        -0.5,
        -0.5,
        -0.5
      ]
    },
    {
      "bufferView": 13,
      "componentType": 5125,
      "count": 6,
      "type": "SCALAR",
      "max": [
        3.0
      ],
      "min": [
        0.0
      ]
    },
    {
      "bufferView": 14,
      "componentType": 5126,
      "count": 4,
      "type": "VEC3",
      "max": [
        0.0,
        0.0,
        -1.0
      ],
      "min": [
        0.0,
        0.0,
        -1.0
      ]
    },
    {
      "bufferView": 15,
      "componentType": 5126,
      "count": 4,
      "type": "VEC2",
      "max": [
        0.99853516,
        0.8333333
      ],
      "min": [
        0.6666667,
        0.5
      ]
    },
    {
      "bufferView": 16,
      "componentType": 5126,
      "count": 47,
      "type": "VEC3",
      "max": [
        0.5,
        -0.5,
        0.5
      ],
      "min": [
        -0.5,
        -0.5,
        -0.5
      ]
    },
    {
      "bufferView": 17,
      "componentType": 5125,
      "count": 135,
      "type": "SCALAR",
      "max": [
        46.0
      ],
      "min": [
        0.0
      ]
    },
    {
      "bufferView": 18,
      "componentType": 5126,
      "count": 47,
      "type": "VEC3",
      "max": [
        0.0,
        -1.0,
        0.0
      ],
      "min": [
        0.0,
        -1.0,
        0.0
      ]
    },
    {
      "bufferView": 19,
      "componentType": 5126,
      "count": 47,
      "type": "VEC2",
      "max": [
        0.99853516,
        0.33333334
      ],
      "min": [
        0.6666667,
        0.0
      ]
    },
    {
      "bufferView": 20,
      "componentType": 5126,
      "count": 4,
      "type": "VEC3",
      "max": [
        0.5,
        0.5,
        0.5
      ],
      "min": [
        -0.5,
        0.5,
        -0.5
      ]
    },
    {
      "bufferView": 21,
      "componentType": 5125,
      "count": 6,
      "type": "SCALAR",
      "max": [
        3.0
      ],
      "min": [
        0.0
      ]
    },
    {
      "bufferView": 22,
      "componentType": 5126,
      "count": 4,
      "type": "VEC3",
      "max": [
        0.0,
        1.0,
        0.0
      ],
      "min": [
        0.0,
        1.0,
        0.0
      ]
    },
    {
      "bufferView": 23,
      "componentType": 5126,
      "count": 4,
      "type": "VEC2",
      "max": [
        0.62612855,
        0.3318685
      ],
      "min": [
        0.29279524,
        0.0
      ]
    },
    {
      "bufferView": 24,
      "componentType": 5126,
      "count": 1110,
      "type": "VEC3",
      "max": [
        0.5,
        0.0,
        0.5
      ],
      "min": [
        0.0,
        -0.5,
        0.0
      ]
    },
    {
      "bufferView": 25,
      "componentType": 5125,
      "count": 6111,
      "type": "SCALAR",
      "max": [
        1109.0
      ],
      "min": [
        0.0
      ]
    },
    {
      "bufferView": 26,
      "componentType": 5126,
      "count": 1110,
      "type": "VEC3",
      "max": [
        1.0,
        1.1714555E-15,
        1.0
      ],
      "min": [
        -1.8369701E-16,
        -1.0,
        0.0
      ]
    },
    {
      "bufferView": 27,
      "componentType": 5126,
      "count": 1110,
      "type": "VEC2",
      "max": [
        0.26104808,
        0.26104808
      ],
      "min": [
        0.0,
        0.0
      ]
    }
  ],
  "asset": {
    "version": "2.0"
  },
  "buffers": [
    {
      "uri": "data:application/octet-stream;base64,",
      "byteLength": 48
    },
    {
      "uri": "data:application/octet-stream;base64,",
      "byteLength": 24
    },
    {
      "uri": "data:application/octet-stream;base64,",
      "byteLength": 48
    },
    {
      "uri": "data:application/octet-stream;base64,",
      "byteLength": 32
    },
    {
      "uri": "data:application/octet-stream;base64,",
      "byteLength": 420
    },
    {
      "uri": "data:application/octet-stream;base64,",
      "byteLength": 396
    },
    {
      "uri": "data:application/octet-stream;base64,",
      "byteLength": 420
    },
    {
      "uri": "data:application/octet-stream;base64,",
      "byteLength": 280
    },
    {
      "uri": "data:application/octet-stream;base64,",
      "byteLength": 564
    },
    {
      "uri": "data:application/octet-stream;base64,",
      "byteLength": 540
    },
    {
      "uri": "data:application/octet-stream;base64,",
      "byteLength": 564
    },
    {
      "uri": "data:application/octet-stream;base64,",
      "byteLength": 376
    },
    {
      "uri": "data:application/octet-stream;base64,",
      "byteLength": 48
    },
    {
      "uri": "data:application/octet-stream;base64,",
      "byteLength": 24
    },
    {
      "uri": "data:application/octet-stream;base64,",
      "byteLength": 48
    },
    {
      "uri": "data:application/octet-stream;base64,",
      "byteLength": 32
    },
    {
      "uri": "data:application/octet-stream;base64,",
      "byteLength": 564
    },
    {
      "uri": "data:application/octet-stream;base64,",
      "byteLength": 540
    },
    {
      "uri": "data:application/octet-stream;base64,",
      "byteLength": 564
    },
    {
      "uri": "data:application/octet-stream;base64,",
      "byteLength": 376
    },
    {
      "uri": "data:application/octet-stream;base64,",
      "byteLength": 48
    },
    {
      "uri": "data:application/octet-stream;base64,",
      "byteLength": 24
    },
    {
      "uri": "data:application/octet-stream;base64,",
      "byteLength": 48
    },
    {
      "uri": "data:application/octet-stream;base64,",
      "byteLength": 32
    },
    {
      "uri": "data:application/octet-stream;base64,",
      "byteLength": 13320
    },
    {
      "uri": "data:application/octet-stream;base64,",
      "byteLength": 24444
    },
    {
      "uri": "data:application/octet-stream;base64,",
      "byteLength": 13320
    },
    {
      "uri": "data:application/octet-stream;base64,",
      "byteLength": 8880
    }
  ],
  "bufferViews": [
    {
      "buffer": 0,
      "byteLength": 48,
      "target": 34962
    },
    {
      "buffer": 1,
      "byteLength": 24,
      "target": 34963
    },
    {
      "buffer": 2,
      "byteLength": 48,
      "target": 34962
    },
    {
      "buffer": 3,
      "byteLength": 32,
      "target": 34962
    },
    {
      "buffer": 4,
      "byteLength": 420,
      "target": 34962
    },
    {
      "buffer": 5,
      "byteLength": 396,
      "target": 34963
    },
    {
      "buffer": 6,
      "byteLength": 420,
      "target": 34962
    },
    {
      "buffer": 7,
      "byteLength": 280,
      "target": 34962
    },
    {
      "buffer": 8,
      "byteLength": 564,
      "target": 34962
    },
    {
      "buffer": 9,
      "byteLength": 540,
      "target": 34963
    },
    {
      "buffer": 10,
      "byteLength": 564,
      "target": 34962
    },
    {
      "buffer": 11,
      "byteLength": 376,
      "target": 34962
    },
    {
      "buffer": 12,
      "byteLength": 48,
      "target": 34962
    },
    {
      "buffer": 13,
      "byteLength": 24,
      "target": 34963
    },
    {
      "buffer": 14,
      "byteLength": 48,
      "target": 34962
    },
    {
      "buffer": 15,
      "byteLength": 32,
      "target": 34962
    },
    {
      "buffer": 16,
      "byteLength": 564,
      "target": 34962
    },
    {
      "buffer": 17,
      "byteLength": 540,
      "target": 34963
    },
    {
      "buffer": 18,
      "byteLength": 564,
      "target": 34962
    },
    {
      "buffer": 19,
      "byteLength": 376,
      "target": 34962
    },
    {
      "buffer": 20,
      "byteLength": 48,
      "target": 34962
    },
    {
      "buffer": 21,
      "byteLength": 24,
      "target": 34963
    },
    {
      "buffer": 22,
      "byteLength": 48,
      "target": 34962
    },
    {
      "buffer": 23,
      "byteLength": 32,
      "target": 34962
    },
    {
      "buffer": 24,
      "byteLength": 13320,
      "target": 34962
    },
    {
      "buffer": 25,
      "byteLength": 24444,
      "target": 34963
    },
    {
      "buffer": 26,
      "byteLength": 13320,
      "target": 34962
    },
    {
      "buffer": 27,
      "byteLength": 8880,
      "target": 34962
    }
  ],
  "materials": [
    {
      "pbrMetallicRoughness": {
        "baseColorFactor": [
          0.0,
          0.0,
          0.0,
          1.0
        ]
      }
    }
  ],
  "meshes": [
    {
      "primitives": [
        {
          "attributes": {
            "POSITION": 0,
            "NORMAL": 2,
            "TEXCOORD_0": 3
          },
          "indices": 1,
          "material": 0
        },
        {
          "attributes": {
            "POSITION": 4,
            "NORMAL": 6,
            "TEXCOORD_0": 7
          },
          "indices": 5,
          "material": 0
        },
        {
          "attributes": {
            "POSITION": 8,
            "NORMAL": 10,
            "TEXCOORD_0": 11
          },
          "indices": 9,
          "material": 0
        },
        {
          "attributes": {
            "POSITION": 12,
            "NORMAL": 14,
            "TEXCOORD_0": 15
          },
          "indices": 13,
          "material": 0
        },
        {
          "attributes": {
            "POSITION": 16,
            "NORMAL": 18,
            "TEXCOORD_0": 19
          },
          "indices": 17,
          "material": 0
        },
        {
          "attributes": {
            "POSITION": 20,
            "NORMAL": 22,
            "TEXCOORD_0": 23
          },
          "indices": 21,
          "material": 0
        },
        {
          "attributes": {
            "POSITION": 24,
            "NORMAL": 26,
            "TEXCOORD_0": 27
          },
          "indices": 25,
          "material": 0
        }
      ]
    }
  ],
  "nodes": [
    {
      "mesh": 0
    }
  ],
  "samplers": [
    {
      "magFilter": 9729,
      "minFilter": 9729
    }
  ],
  "scene": 0,
  "scenes": [
    {
      "nodes": [
        0
      ],
      "extensions": {}
    }
  ],
  "extensions": {}
}