{
  "extensionsUsed": [
    "KHR_materials_transmission",
    "KHR_materials_clearcoat",
    "KHR_materials_ior",
    "KHR_materials_specular",
    "KHR_materials_emissive_strength",
    "KHR_texture_transform"
  ],
  "accessors": [
    {
      "bufferView": 0,
      "componentType": 5126,
      "count": 67,
      "type": "VEC3",
      "max": [
        0.5,
        0.5,
        0.5
      ],
      "min": [
        -0.5,
        -0.5,
        -0.5
      ]
    },
    {
      "bufferView": 1,
      "componentType": 5125,
      "count": 195,
      "type": "SCALAR",
      "max": [
        66.0
      ],
      "min": [
        0.0
      ]
    },
    {
      "bufferView": 2,
      "componentType": 5126,
      "count": 67,
      "type": "VEC3",
      "max": [
        1.5414345E-16,
        0.0,
        -2.7745824E-16
      ],
      "min": [
        -1.0,
        0.0,
        -1.0
      ]
    },
    {
      "bufferView": 3,
      "componentType": 5126,
      "count": 67,
      "type": "VEC2",
      "max": [
        0.66520184,
        1.0
      ],
      "min": [
        0.33333334,
        0.47790384
      ]
    },
    {
      "bufferView": 5,
      "componentType": 5126,
      "count": 34,
      "type": "VEC3",
      "max": [
        0.5,
        0.5,
        0.5
      ],
      "min": [
        -0.5,
        0.5,
        -0.5
      ]
    },
    {
      "bufferView": 6,
      "componentType": 5125,
      "count": 96,
      "type": "SCALAR",
      "max": [
        33.0
      ],
      "min": [
        0.0
      ]
    },
    {
      "bufferView": 7,
      "componentType": 5126,
      "count": 34,
      "type": "VEC3",
      "max": [
        0.0,
        1.0,
        0.0
      ],
      "min": [
        0.0,
        1.0,
        0.0
      ]
    },
    {
      "bufferView": 8,
      "componentType": 5126,
      "count": 34,
      "type": "VEC2",
      "max": [
        0.3318685,
        1.0
      ],
      "min": [
        0.0,
        0.6681315
      ]
    },
    {
      "bufferView": 9,
      "componentType": 5126,
      "count": 34,
      "type": "VEC3",
      "max": [
        0.5,
        -0.5,
        0.5
      ],
      "min": [
        -0.5,
        -0.5,
        -0.5
      ]
    },
    {
      "bufferView": 10,
      "componentType": 5125,
      "count": 96,
      "type": "SCALAR",
      "max": [
        33.0
      ],
      "min": [
        0.0
      ]
    },
    {
      "bufferView": 11,
      "componentType": 5126,
      "count": 34,
      "type": "VEC3",
      "max": [
        0.0,
        -1.0,
        0.0
      ],
      "min": [
        0.0,
        -1.0,
        0.0
      ]
    },
    {
      "bufferView": 12,
      "componentType": 5126,
      "count": 34,
      "type": "VEC2",
      "max": [
        0.3318685,
        0.6666666
      ],
      "min": [
        0.0,
        0.33479816
      ]
    },
    {
      "bufferView": 13,
      "componentType": 5126,
      "count": 4,
      "type": "VEC3",
      "max": [
        0.5,
        0.5,
        0.5
      ],
      "min": [
        0.5,
        -0.5,
        -0.5
      ]
    },
    {
      "bufferView": 14,
      "componentType": 5125,
      "count": 6,
      "type": "SCALAR",
      "max": [
        3.0
      ],
      "min": [
        0.0
      ]
    },
    {
      "bufferView": 15,
      "componentType": 5126,
      "count": 4,
      "type": "VEC3",
      "max": [
        1.0,
        0.0,
        0.0
      ],
      "min": [
        1.0,
        0.0,
        0.0
      ]
    },
    {
      "bufferView": 16,
      "componentType": 5126,
      "count": 4,
      "type": "VEC2",
      "max": [
        0.99853516,
        1.0
      ],
      "min": [
        0.6666667,
        0.6681315
      ]
    },
    {
      "bufferView": 17,
      "componentType": 5126,
      "count": 5,
      "type": "VEC3",
      "max": [
        0.5,
        0.5,
        0.5
      ],
      "min": [
        -0.5,
        -0.5,
        0.5
      ]
    },
    {
      "bufferView": 18,
      "componentType": 5125,
      "count": 9,
      "type": "SCALAR",
      "max": [
        4.0
      ],
      "min": [
        0.0
      ]
    },
    {
      "bufferView": 19,
      "componentType": 5126,
      "count": 5,
      "type": "VEC3",
      "max": [
        0.0,
        0.0,
        1.0
      ],
      "min": [
        0.0,
        0.0,
        1.0
      ]
    },
    {
      "bufferView": 20,
      "componentType": 5126,
      "count": 5,
      "type": "VEC2",
      "max": [
        0.99853516,
        0.6666666
      ],
      "min": [
        0.6666667,
        0.33479816
      ]
    }
  ],
  "asset": {
    "version": "2.0"
  },
  "buffers": [
    {
      "uri": "data:application/octet-stream;base64,",
      "byteLength": 804
    },
    {
      "uri": "data:application/octet-stream;base64,",
      "byteLength": 780
    },
    {
      "uri": "data:application/octet-stream;base64,",
      "byteLength": 804
    },
    {
      "uri": "data:application/octet-stream;base64,",
      "byteLength": 536
    },
    {
      "uri": "data:application/octet-stream;base64,",
      "byteLength": 1253800
    },
    {
      "uri": "data:application/octet-stream;base64,",
      "byteLength": 408
    },
    {
      "uri": "data:application/octet-stream;base64,",
      "byteLength": 384
    },
    {
      "uri": "data:application/octet-stream;base64,",
      "byteLength": 408
    },
    {
      "uri": "data:application/octet-stream;base64,",
      "byteLength": 272
    },
    {
      "uri": "data:application/octet-stream;base64,",
      "byteLength": 408
    },
    {
      "uri": "data:application/octet-stream;base64,",
      "byteLength": 384
    },
    {
      "uri": "data:application/octet-stream;base64,",
      "byteLength": 408
    },
    {
      "uri": "data:application/octet-stream;base64,",
      "byteLength": 272
    },
    {
      "uri": "data:application/octet-stream;base64,",
      "byteLength": 48
    },
    {
      "uri": "data:application/octet-stream;base64,",
      "byteLength": 24
    },
    {
      "uri": "data:application/octet-stream;base64,",
      "byteLength": 48
    },
    {
      "uri": "data:application/octet-stream;base64,",
      "byteLength": 32
    },
    {
      "uri": "data:application/octet-stream;base64,",
      "byteLength": 60
    },
    {
      "uri": "data:application/octet-stream;base64,",
      "byteLength": 36
    },
    {
      "uri": "data:application/octet-stream;base64,",
      "byteLength": 60
    },
    {
      "uri": "data:application/octet-stream;base64,",
      "byteLength": 40
    }
  ],
  "bufferViews": [
    {
      "buffer": 0,
      "byteLength": 804,
      "target": 34962
    },
    {
      "buffer": 1,
      "byteLength": 780,
      "target": 34963
    },
    {
      "buffer": 2,
      "byteLength": 804,
      "target": 34962
    },
    {
      "buffer": 3,
      "byteLength": 536,
      "target": 34962
    },
    {
      "buffer": 4,
      "byteLength": 1253800
    },
    {
      "buffer": 5,
      "byteLength": 408,
      "target": 34962
    },
    {
      "buffer": 6,
      "byteLength": 384,
      "target": 34963
    },
    {
      "buffer": 7,
      "byteLength": 408,
      "target": 34962
    },
    {
      "buffer": 8,
      "byteLength": 272,
      "target": 34962
    },
    {
      "buffer": 9,
      "byteLength": 408,
      "target": 34962
    },
    {
      "buffer": 10,
      "byteLength": 384,
      "target": 34963
    },
    {
      "buffer": 11,
      "byteLength": 408,
      "target": 34962
    },
    {
      "buffer": 12,
      "byteLength": 272,
      "target": 34962
    },
    {
      "buffer": 13,
      "byteLength": 48,
      "target": 34962
    },
    {
      "buffer": 14,
      "byteLength": 24,
      "target": 34963
    },
    {
      "buffer": 15,
      "byteLength": 48,
      "target": 34962
    },
    {
      "buffer": 16,
      "byteLength": 32,
      "target": 34962
    },
    {
      "buffer": 17,
      "byteLength": 60,
      "target": 34962
    },
    {
      "buffer": 18,
      "byteLength": 36,
      "target": 34963
    },
    {
      "buffer": 19,
      "byteLength": 60,
      "target": 34962
    },
    {
      "buffer": 20,
      "byteLength": 40,
      "target": 34962
    }
  ],
  "images": [
    {
      "mimeType": "image/png",
      "bufferView": 4
    }
  ],
  "materials": [
    {
      "name": "Rock",
      "extensions": {
        "KHR_materials_transmission": {},
        "KHR_materials_clearcoat": {},
        "KHR_materials_ior": {
          "ior": 1.52
        },
        "KHR_materials_specular": {
          "specularFactor": 0.5,
          "specularColorFactor": [
            1.0,
            1.0,
            1.0
          ]
        }
      },
      "pbrMetallicRoughness": {
        "baseColorTexture": {
          "index": 0,
          "extensions": {
            "KHR_texture_transform": {
              "offset": [
                0.0,
                -4.307
              ],
              "scale": [
                5.307,
                -5.307
              ]
            }
          }
        },
        "metallicFactor": 0.0,
        "roughnessFactor": 0.34829438
      }
    }
  ],
  "meshes": [
    {
      "primitives": [
        {
          "attributes": {
            "POSITION": 0,
            "NORMAL": 2,
            "TEXCOORD_0": 3
          },
          "indices": 1,
          "material": 0
        }
      ]
    },
    {
      "primitives": [
        {
          "attributes": {
            "POSITION": 4,
            "NORMAL": 6,
            "TEXCOORD_0": 7
          },
          "indices": 5,
          "material": 0
        }
      ]
    },
    {
      "primitives": [
        {
          "attributes": {
            "POSITION": 8,
            "NORMAL": 10,
            "TEXCOORD_0": 11
          },
          "indices": 9,
          "material": 0
        }
      ]
    },
    {
      "primitives": [
        {
          "attributes": {
            "POSITION": 12,
            "NORMAL": 14,
            "TEXCOORD_0": 15
          },
          "indices": 13,
          "material": 0
        }
      ]
    },
    {
      "primitives": [
        {
          "attributes": {
            "POSITION": 16,
            "NORMAL": 18,
            "TEXCOORD_0": 19
          },
          "indices": 17,
          "material": 0
        }
      ]
    }
  ],
  "nodes": [
    {
      "mesh": 0
    },
    {
      "mesh": 1
    },
    {
      "mesh": 2
    },
    {
      "mesh": 3
    },
    {
      "mesh": 4
    }
  ],
  "samplers": [
    {
      "magFilter": 9729,
      "minFilter": 9729
    }
  ],
  "scene": 0,
  "scenes": [
    {
      "nodes": [
        0,
        1,
        2,
        3,
        4
      ],
      "extensions": {}
    }
  ],
  "textures": [
    {
      "sampler": 0,
      "source": 0
    }
  ],
  "extensions": {}
}