{
  "extensionsUsed": [
    "KHR_materials_transmission",
    "KHR_materials_clearcoat",
    "KHR_materials_ior",
    "KHR_materials_specular",
    "KHR_materials_emissive_strength",
    "KHR_texture_transform"
  ],
  "accessors": [
    {
      "bufferView": 0,
      "componentType": 5126,
      "count": 38,
      "type": "VEC3",
      "max": [
        0.5,
        0.5,
        0.5000003
      ],
      "min": [
        -0.5,
        0.49999997,
        -0.4999997
      ]
    },
    {
      "bufferView": 1,
      "componentType": 5125,
      "count": 108,
      "type": "SCALAR",
      "max": [
        37.0
      ],
      "min": [
        0.0
      ]
    },
    {
      "bufferView": 2,
      "componentType": 5126,
      "count": 38,
      "type": "VEC3",
      "max": [
        2.7755576E-17,
        1.0,
        0.0
      ],
      "min": [
        -2.7755576E-17,
        1.0,
        0.0
      ]
    },
    {
      "bufferView": 3,
      "componentType": 5126,
      "count": 38,
      "type": "VEC2",
      "max": [
        0.9922798,
        0.38600534
      ],
      "min": [
        0.6062745,
        0.0
      ]
    },
    {
      "bufferView": 4,
      "componentType": 5126,
      "count": 99,
      "type": "VEC3",
      "max": [
        0.5,
        0.5,
        0.5000003
      ],
      "min": [
        0.5,
        0.0,
        3.0261126E-07
      ]
    },
    {
      "bufferView": 5,
      "componentType": 5125,
      "count": 288,
      "type": "SCALAR",
      "max": [
        98.0
      ],
      "min": [
        0.0
      ]
    },
    {
      "bufferView": 6,
      "componentType": 5126,
      "count": 99,
      "type": "VEC3",
      "max": [
        1.0,
        0.0,
        0.0
      ],
      "min": [
        1.0,
        0.0,
        0.0
      ]
    },
    {
      "bufferView": 7,
      "componentType": 5126,
      "count": 99,
      "type": "VEC2",
      "max": [
        0.3016724,
        0.579008
      ],
      "min": [
        0.0,
        0.38600534
      ]
    },
    {
      "bufferView": 8,
      "componentType": 5126,
      "count": 1089,
      "type": "VEC3",
      "max": [
        0.5,
        0.5,
        0.5000003
      ],
      "min": [
        -0.5,
        -1.5161851E-15,
        -0.4999997
      ]
    },
    {
      "bufferView": 9,
      "componentType": 5125,
      "count": 6144,
      "type": "SCALAR",
      "max": [
        1088.0
      ],
      "min": [
        0.0
      ]
    },
    {
      "bufferView": 10,
      "componentType": 5126,
      "count": 1089,
      "type": "VEC3",
      "max": [
        1.0,
        7.248873E-15,
        1.6620442E-16
      ],
      "min": [
        -3.9607865E-08,
        -1.0,
        -1.0
      ]
    },
    {
      "bufferView": 11,
      "componentType": 5126,
      "count": 1089,
      "type": "VEC2",
      "max": [
        0.60480964,
        0.99081504
      ],
      "min": [
        0.30313724,
        0.38600534
      ]
    },
    {
      "bufferView": 12,
      "componentType": 5126,
      "count": 5,
      "type": "VEC3",
      "max": [
        0.5,
        0.5,
        0.5000003
      ],
      "min": [
        -0.5,
        0.0,
        0.5000003
      ]
    },
    {
      "bufferView": 13,
      "componentType": 5125,
      "count": 9,
      "type": "SCALAR",
      "max": [
        4.0
      ],
      "min": [
        0.0
      ]
    },
    {
      "bufferView": 14,
      "componentType": 5126,
      "count": 5,
      "type": "VEC3",
      "max": [
        0.0,
        0.0,
        1.0
      ],
      "min": [
        0.0,
        0.0,
        1.0
      ]
    },
    {
      "bufferView": 15,
      "componentType": 5126,
      "count": 5,
      "type": "VEC2",
      "max": [
        0.38600534,
        0.3845405
      ],
      "min": [
        0.0,
        0.19300267
      ]
    },
    {
      "bufferView": 16,
      "componentType": 5126,
      "count": 99,
      "type": "VEC3",
      "max": [
        0.0,
        0.5,
        -0.4999997
      ],
      "min": [
        -0.5,
        -1.278977E-15,
        -0.4999997
      ]
    },
    {
      "bufferView": 17,
      "componentType": 5125,
      "count": 288,
      "type": "SCALAR",
      "max": [
        98.0
      ],
      "min": [
        0.0
      ]
    },
    {
      "bufferView": 18,
      "componentType": 5126,
      "count": 99,
      "type": "VEC3",
      "max": [
        7.2847826E-08,
        2.2737367E-15,
        -1.0
      ],
      "min": [
        7.2847826E-08,
        5.5690493E-31,
        -1.0
      ]
    },
    {
      "bufferView": 19,
      "componentType": 5126,
      "count": 99,
      "type": "VEC2",
      "max": [
        0.3016724,
        0.8821453
      ],
      "min": [
        0.0,
        0.68914264
      ]
    },
    {
      "bufferView": 20,
      "componentType": 5126,
      "count": 5,
      "type": "VEC3",
      "max": [
        -0.5,
        0.5,
        0.5000003
      ],
      "min": [
        -0.5,
        0.0,
        -0.4999997
      ]
    },
    {
      "bufferView": 21,
      "componentType": 5125,
      "count": 9,
      "type": "SCALAR",
      "max": [
        4.0
      ],
      "min": [
        0.0
      ]
    },
    {
      "bufferView": 22,
      "componentType": 5126,
      "count": 5,
      "type": "VEC3",
      "max": [
        -1.0,
        0.0,
        0.0
      ],
      "min": [
        -1.0,
        0.0,
        0.0
      ]
    },
    {
      "bufferView": 23,
      "componentType": 5126,
      "count": 5,
      "type": "VEC2",
      "max": [
        0.38600534,
        0.19153783
      ],
      "min": [
        0.0,
        0.0
      ]
    },
    {
      "bufferView": 24,
      "componentType": 5126,
      "count": 34,
      "type": "VEC3",
      "max": [
        0.5,
        5.975706E-18,
        0.5000003
      ],
      "min": [
        -0.5,
        -1.5161851E-15,
        -0.4999997
      ]
    },
    {
      "bufferView": 25,
      "componentType": 5125,
      "count": 96,
      "type": "SCALAR",
      "max": [
        33.0
      ],
      "min": [
        0.0
      ]
    },
    {
      "bufferView": 26,
      "componentType": 5126,
      "count": 34,
      "type": "VEC3",
      "max": [
        0.0,
        -1.0,
        0.0
      ],
      "min": [
        0.0,
        -1.0,
        0.0
      ]
    },
    {
      "bufferView": 27,
      "componentType": 5126,
      "count": 34,
      "type": "VEC2",
      "max": [
        0.99468946,
        0.8810931
      ],
      "min": [
        0.6101202,
        0.4950877
      ]
    }
  ],
  "asset": {
    "version": "2.0"
  },
  "buffers": [
    {
      "uri": "data:application/octet-stream;base64,",
      "byteLength": 456
    },
    {
      "uri": "data:application/octet-stream;base64,",
      "byteLength": 432
    },
    {
      "uri": "data:application/octet-stream;base64,",
      "byteLength": 456
    },
    {
      "uri": "data:application/octet-stream;base64,",
      "byteLength": 304
    },
    {
      "uri": "data:application/octet-stream;base64,",
      "byteLength": 1188
    },
    {
      "uri": "data:application/octet-stream;base64,",
      "byteLength": 1152
    },
    {
      "uri": "data:application/octet-stream;base64,",
      "byteLength": 1188
    },
    {
      "uri": "data:application/octet-stream;base64,",
      "byteLength": 792
    },
    {
      "uri": "data:application/octet-stream;base64,",
      "byteLength": 13068
    },
    {
      "uri": "data:application/octet-stream;base64,",
      "byteLength": 24576
    },
    {
      "uri": "data:application/octet-stream;base64,",
      "byteLength": 13068
    },
    {
      "uri": "data:application/octet-stream;base64,",
      "byteLength": 8712
    },
    {
      "uri": "data:application/octet-stream;base64,",
      "byteLength": 60
    },
    {
      "uri": "data:application/octet-stream;base64,",
      "byteLength": 36
    },
    {
      "uri": "data:application/octet-stream;base64,",
      "byteLength": 60
    },
    {
      "uri": "data:application/octet-stream;base64,",
      "byteLength": 40
    },
    {
      "uri": "data:application/octet-stream;base64,",
      "byteLength": 1188
    },
    {
      "uri": "data:application/octet-stream;base64,",
      "byteLength": 1152
    },
    {
      "uri": "data:application/octet-stream;base64,",
      "byteLength": 1188
    },
    {
      "uri": "data:application/octet-stream;base64,",
      "byteLength": 792
    },
    {
      "uri": "data:application/octet-stream;base64,",
      "byteLength": 60
    },
    {
      "uri": "data:application/octet-stream;base64,",
      "byteLength": 36
    },
    {
      "uri": "data:application/octet-stream;base64,",
      "byteLength": 60
    },
    {
      "uri": "data:application/octet-stream;base64,",
      "byteLength": 40
    },
    {
      "uri": "data:application/octet-stream;base64,",
      "byteLength": 408
    },
    {
      "uri": "data:application/octet-stream;base64,",
      "byteLength": 384
    },
    {
      "uri": "data:application/octet-stream;base64,",
      "byteLength": 408
    },
    {
      "uri": "data:application/octet-stream;base64,",
      "byteLength": 272
    }
  ],
  "bufferViews": [
    {
      "buffer": 0,
      "byteLength": 456,
      "target": 34962
    },
    {
      "buffer": 1,
      "byteLength": 432,
      "target": 34963
    },
    {
      "buffer": 2,
      "byteLength": 456,
      "target": 34962
    },
    {
      "buffer": 3,
      "byteLength": 304,
      "target": 34962
    },
    {
      "buffer": 4,
      "byteLength": 1188,
      "target": 34962
    },
    {
      "buffer": 5,
      "byteLength": 1152,
      "target": 34963
    },
    {
      "buffer": 6,
      "byteLength": 1188,
      "target": 34962
    },
    {
      "buffer": 7,
      "byteLength": 792,
      "target": 34962
    },
    {
      "buffer": 8,
      "byteLength": 13068,
      "target": 34962
    },
    {
      "buffer": 9,
      "byteLength": 24576,
      "target": 34963
    },
    {
      "buffer": 10,
      "byteLength": 13068,
      "target": 34962
    },
    {
      "buffer": 11,
      "byteLength": 8712,
      "target": 34962
    },
    {
      "buffer": 12,
      "byteLength": 60,
      "target": 34962
    },
    {
      "buffer": 13,
      "byteLength": 36,
      "target": 34963
    },
    {
      "buffer": 14,
      "byteLength": 60,
      "target": 34962
    },
    {
      "buffer": 15,
      "byteLength": 40,
      "target": 34962
    },
    {
      "buffer": 16,
      "byteLength": 1188,
      "target": 34962
    },
    {
      "buffer": 17,
      "byteLength": 1152,
      "target": 34963
    },
    {
      "buffer": 18,
      "byteLength": 1188,
      "target": 34962
    },
    {
      "buffer": 19,
      "byteLength": 792,
      "target": 34962
    },
    {
      "buffer": 20,
      "byteLength": 60,
      "target": 34962
    },
    {
      "buffer": 21,
      "byteLength": 36,
      "target": 34963
    },
    {
      "buffer": 22,
      "byteLength": 60,
      "target": 34962
    },
    {
      "buffer": 23,
      "byteLength": 40,
      "target": 34962
    },
    {
      "buffer": 24,
      "byteLength": 408,
      "target": 34962
    },
    {
      "buffer": 25,
      "byteLength": 384,
      "target": 34963
    },
    {
      "buffer": 26,
      "byteLength": 408,
      "target": 34962
    },
    {
      "buffer": 27,
      "byteLength": 272,
      "target": 34962
    }
  ],
  "materials": [
    {
      "pbrMetallicRoughness": {
        "baseColorFactor": [
          0.0,
          0.0,
          0.0,
          1.0
        ]
      }
    }
  ],
  "meshes": [
    {
      "primitives": [
        {
          "attributes": {
            "POSITION": 0,
            "NORMAL": 2,
            "TEXCOORD_0": 3
          },
          "indices": 1,
          "material": 0
        },
        {
          "attributes": {
            "POSITION": 4,
            "NORMAL": 6,
            "TEXCOORD_0": 7
          },
          "indices": 5,
          "material": 0
        },
        {
          "attributes": {
            "POSITION": 8,
            "NORMAL": 10,
            "TEXCOORD_0": 11
          },
          "indices": 9,
          "material": 0
        },
        {
          "attributes": {
            "POSITION": 12,
            "NORMAL": 14,
            "TEXCOORD_0": 15
          },
          "indices": 13,
          "material": 0
        },
        {
          "attributes": {
            "POSITION": 16,
            "NORMAL": 18,
            "TEXCOORD_0": 19
          },
          "indices": 17,
          "material": 0
        },
        {
          "attributes": {
            "POSITION": 20,
            "NORMAL": 22,
            "TEXCOORD_0": 23
          },
          "indices": 21,
          "material": 0
        },
        {
          "attributes": {
            "POSITION": 24,
            "NORMAL": 26,
            "TEXCOORD_0": 27
          },
          "indices": 25,
          "material": 0
        }
      ]
    }
  ],
  "nodes": [
    {
      "mesh": 0
    }
  ],
  "samplers": [
    {
      "magFilter": 9729,
      "minFilter": 9729
    }
  ],
  "scene": 0,
  "scenes": [
    {
      "nodes": [
        0
      ],
      "extensions": {}
    }
  ],
  "extensions": {}
}