{
  "extensionsUsed": [
    "KHR_materials_transmission",
    "KHR_materials_clearcoat",
    "KHR_materials_ior",
    "KHR_materials_specular",
    "KHR_materials_emissive_strength",
    "KHR_texture_transform"
  ],
  "accessors": [
    {
      "bufferView": 0,
      "componentType": 5126,
      "count": 38,
      "type": "VEC3",
      "max": [
        0.5,
        0.5,
        0.5
      ],
      "min": [
        -0.5,
        -0.5,
        0.5
      ]
    },
    {
      "bufferView": 1,
      "componentType": 5125,
      "count": 108,
      "type": "SCALAR",
      "max": [
        37.0
      ],
      "min": [
        0.0
      ]
    },
    {
      "bufferView": 2,
      "componentType": 5126,
      "count": 38,
      "type": "VEC3",
      "max": [
        1.7763568E-15,
        0.0,
        1.0
      ],
      "min": [
        -1.7763568E-15,
        0.0,
        1.0
      ]
    },
    {
      "bufferView": 3,
      "componentType": 5126,
      "count": 38,
      "type": "VEC2",
      "max": [
        0.38600537,
        -0.19300269
      ],
      "min": [
        0.0,
        -0.5775432
      ]
    },
    {
      "bufferView": 4,
      "componentType": 5126,
      "count": 94,
      "type": "VEC3",
      "max": [
        0.5,
        0.5,
        0.5
      ],
      "min": [
        -0.5,
        0.5,
        -0.5
      ]
    },
    {
      "bufferView": 5,
      "componentType": 5125,
      "count": 273,
      "type": "SCALAR",
      "max": [
        93.0
      ],
      "min": [
        0.0
      ]
    },
    {
      "bufferView": 6,
      "componentType": 5126,
      "count": 94,
      "type": "VEC3",
      "max": [
        0.0,
        1.0,
        0.0
      ],
      "min": [
        0.0,
        1.0,
        0.0
      ]
    },
    {
      "bufferView": 7,
      "componentType": 5126,
      "count": 94,
      "type": "VEC2",
      "max": [
        0.99853516,
        -0.0
      ],
      "min": [
        0.39372545,
        -0.38600537
      ]
    },
    {
      "bufferView": 8,
      "componentType": 5126,
      "count": 72,
      "type": "VEC3",
      "max": [
        0.5,
        0.5,
        0.5
      ],
      "min": [
        -0.5,
        0.0,
        -0.5
      ]
    },
    {
      "bufferView": 9,
      "componentType": 5125,
      "count": 210,
      "type": "SCALAR",
      "max": [
        71.0
      ],
      "min": [
        0.0
      ]
    },
    {
      "bufferView": 10,
      "componentType": 5126,
      "count": 72,
      "type": "VEC3",
      "max": [
        1.8369701E-16,
        0.0,
        -2.4492937E-16
      ],
      "min": [
        -1.0,
        0.0,
        -1.0
      ]
    },
    {
      "bufferView": 11,
      "componentType": 5126,
      "count": 72,
      "type": "VEC2",
      "max": [
        0.99853516,
        -0.75991124
      ],
      "min": [
        0.39372545,
        -0.95291394
      ]
    },
    {
      "bufferView": 12,
      "componentType": 5126,
      "count": 1090,
      "type": "VEC3",
      "max": [
        0.5,
        0.0,
        0.5
      ],
      "min": [
        -0.5,
        -0.5,
        -0.5
      ]
    },
    {
      "bufferView": 13,
      "componentType": 5125,
      "count": 6147,
      "type": "SCALAR",
      "max": [
        1089.0
      ],
      "min": [
        0.0
      ]
    },
    {
      "bufferView": 14,
      "componentType": 5126,
      "count": 1090,
      "type": "VEC3",
      "max": [
        4.4918848E-15,
        -4.932591E-16,
        4.2937544E-15
      ],
      "min": [
        -1.0,
        -1.0,
        -1.0
      ]
    },
    {
      "bufferView": 15,
      "componentType": 5126,
      "count": 1090,
      "type": "VEC2",
      "max": [
        0.99853516,
        -0.42564455
      ],
      "min": [
        0.39372545,
        -0.7287818
      ]
    },
    {
      "bufferView": 16,
      "componentType": 5126,
      "count": 89,
      "type": "VEC3",
      "max": [
        0.5,
        -0.5,
        0.5
      ],
      "min": [
        0.0,
        -0.5,
        0.0
      ]
    },
    {
      "bufferView": 17,
      "componentType": 5125,
      "count": 258,
      "type": "SCALAR",
      "max": [
        88.0
      ],
      "min": [
        0.0
      ]
    },
    {
      "bufferView": 18,
      "componentType": 5126,
      "count": 89,
      "type": "VEC3",
      "max": [
        0.0,
        -1.0,
        0.0
      ],
      "min": [
        0.0,
        -1.0,
        0.0
      ]
    },
    {
      "bufferView": 19,
      "componentType": 5126,
      "count": 89,
      "type": "VEC2",
      "max": [
        0.30313727,
        -0.0
      ],
      "min": [
        0.0,
        -0.19153784
      ]
    },
    {
      "bufferView": 20,
      "componentType": 5126,
      "count": 38,
      "type": "VEC3",
      "max": [
        0.5,
        0.5,
        0.5
      ],
      "min": [
        0.5,
        -0.5,
        -0.5
      ]
    },
    {
      "bufferView": 21,
      "componentType": 5125,
      "count": 108,
      "type": "SCALAR",
      "max": [
        37.0
      ],
      "min": [
        0.0
      ]
    },
    {
      "bufferView": 22,
      "componentType": 5126,
      "count": 38,
      "type": "VEC3",
      "max": [
        1.0,
        0.0,
        0.0
      ],
      "min": [
        1.0,
        0.0,
        0.0
      ]
    },
    {
      "bufferView": 23,
      "componentType": 5126,
      "count": 38,
      "type": "VEC2",
      "max": [
        0.38841492,
        -0.58285373
      ],
      "min": [
        0.0038456924,
        -0.96742296
      ]
    }
  ],
  "asset": {
    "version": "2.0"
  },
  "buffers": [
    {
      "uri": "data:application/octet-stream;base64,",
      "byteLength": 456
    },
    {
      "uri": "data:application/octet-stream;base64,",
      "byteLength": 432
    },
    {
      "uri": "data:application/octet-stream;base64,",
      "byteLength": 456
    },
    {
      "uri": "data:application/octet-stream;base64,",
      "byteLength": 304
    },
    {
      "uri": "data:application/octet-stream;base64,",
      "byteLength": 1128
    },
    {
      "uri": "data:application/octet-stream;base64,",
      "byteLength": 1092
    },
    {
      "uri": "data:application/octet-stream;base64,",
      "byteLength": 1128
    },
    {
      "uri": "data:application/octet-stream;base64,",
      "byteLength": 752
    },
    {
      "uri": "data:application/octet-stream;base64,",
      "byteLength": 864
    },
    {
      "uri": "data:application/octet-stream;base64,",
      "byteLength": 840
    },
    {
      "uri": "data:application/octet-stream;base64,",
      "byteLength": 864
    },
    {
      "uri": "data:application/octet-stream;base64,",
      "byteLength": 576
    },
    {
      "uri": "data:application/octet-stream;base64,",
      "byteLength": 13080
    },
    {
      "uri": "data:application/octet-stream;base64,",
      "byteLength": 24588
    },
    {
      "uri": "data:application/octet-stream;base64,",
      "byteLength": 13080
    },
    {
      "uri": "data:application/octet-stream;base64,",
      "byteLength": 8720
    },
    {
      "uri": "data:application/octet-stream;base64,",
      "byteLength": 1068
    },
    {
      "uri": "data:application/octet-stream;base64,",
      "byteLength": 1032
    },
    {
      "uri": "data:application/octet-stream;base64,",
      "byteLength": 1068
    },
    {
      "uri": "data:application/octet-stream;base64,",
      "byteLength": 712
    },
    {
      "uri": "data:application/octet-stream;base64,",
      "byteLength": 456
    },
    {
      "uri": "data:application/octet-stream;base64,",
      "byteLength": 432
    },
    {
      "uri": "data:application/octet-stream;base64,",
      "byteLength": 456
    },
    {
      "uri": "data:application/octet-stream;base64,",
      "byteLength": 304
    }
  ],
  "bufferViews": [
    {
      "buffer": 0,
      "byteLength": 456,
      "target": 34962
    },
    {
      "buffer": 1,
      "byteLength": 432,
      "target": 34963
    },
    {
      "buffer": 2,
      "byteLength": 456,
      "target": 34962
    },
    {
      "buffer": 3,
      "byteLength": 304,
      "target": 34962
    },
    {
      "buffer": 4,
      "byteLength": 1128,
      "target": 34962
    },
    {
      "buffer": 5,
      "byteLength": 1092,
      "target": 34963
    },
    {
      "buffer": 6,
      "byteLength": 1128,
      "target": 34962
    },
    {
      "buffer": 7,
      "byteLength": 752,
      "target": 34962
    },
    {
      "buffer": 8,
      "byteLength": 864,
      "target": 34962
    },
    {
      "buffer": 9,
      "byteLength": 840,
      "target": 34963
    },
    {
      "buffer": 10,
      "byteLength": 864,
      "target": 34962
    },
    {
      "buffer": 11,
      "byteLength": 576,
      "target": 34962
    },
    {
      "buffer": 12,
      "byteLength": 13080,
      "target": 34962
    },
    {
      "buffer": 13,
      "byteLength": 24588,
      "target": 34963
    },
    {
      "buffer": 14,
      "byteLength": 13080,
      "target": 34962
    },
    {
      "buffer": 15,
      "byteLength": 8720,
      "target": 34962
    },
    {
      "buffer": 16,
      "byteLength": 1068,
      "target": 34962
    },
    {
      "buffer": 17,
      "byteLength": 1032,
      "target": 34963
    },
    {
      "buffer": 18,
      "byteLength": 1068,
      "target": 34962
    },
    {
      "buffer": 19,
      "byteLength": 712,
      "target": 34962
    },
    {
      "buffer": 20,
      "byteLength": 456,
      "target": 34962
    },
    {
      "buffer": 21,
      "byteLength": 432,
      "target": 34963
    },
    {
      "buffer": 22,
      "byteLength": 456,
      "target": 34962
    },
    {
      "buffer": 23,
      "byteLength": 304,
      "target": 34962
    }
  ],
  "meshes": [
    {
      "primitives": [
        {
          "attributes": {
            "POSITION": 0,
            "NORMAL": 2,
            "TEXCOORD_0": 3
          },
          "indices": 1
        },
        {
          "attributes": {
            "POSITION": 4,
            "NORMAL": 6,
            "TEXCOORD_0": 7
          },
          "indices": 5
        },
        {
          "attributes": {
            "POSITION": 8,
            "NORMAL": 10,
            "TEXCOORD_0": 11
          },
          "indices": 9
        },
        {
          "attributes": {
            "POSITION": 12,
            "NORMAL": 14,
            "TEXCOORD_0": 15
          },
          "indices": 13
        },
        {
          "attributes": {
            "POSITION": 16,
            "NORMAL": 18,
            "TEXCOORD_0": 19
          },
          "indices": 17
        },
        {
          "attributes": {
            "POSITION": 20,
            "NORMAL": 22,
            "TEXCOORD_0": 23
          },
          "indices": 21
        }
      ]
    }
  ],
  "nodes": [
    {
      "mesh": 0
    }
  ],
  "samplers": [
    {
      "magFilter": 9729,
      "minFilter": 9729
    }
  ],
  "scene": 0,
  "scenes": [
    {
      "nodes": [
        0
      ],
      "extensions": {}
    }
  ],
  "extensions": {}
}